<svg width="28" height="34" viewBox="0 0 28 34" fill="none" xmlns="http://www.w3.org/2000/svg">
<path d="M22.384 19.8663C22.5002 19.9824 22.5924 20.1202 22.6554 20.272C22.7183 20.4237 22.7506 20.5864 22.7506 20.7507C22.7506 20.9149 22.7183 21.0776 22.6554 21.2294C22.5924 21.3811 22.5002 21.519 22.384 21.6351L18.6339 25.3852C18.3994 25.6197 18.0812 25.7515 17.7495 25.7515C17.4178 25.7515 17.0997 25.6197 16.8651 25.3852C16.6306 25.1506 16.4988 24.8325 16.4988 24.5008C16.4988 24.1691 16.6306 23.8509 16.8651 23.6164L19.7324 20.7507L16.8651 17.885C16.6306 17.6504 16.4988 17.3323 16.4988 17.0006C16.4988 16.6689 16.6306 16.3507 16.8651 16.1162C17.0997 15.8816 17.4178 15.7498 17.7495 15.7498C18.0812 15.7498 18.3994 15.8816 18.6339 16.1162L22.384 19.8663ZM11.1337 16.1162C11.0177 15.9999 10.8798 15.9077 10.728 15.8448C10.5763 15.7819 10.4136 15.7496 10.2493 15.7496C10.0851 15.7496 9.92241 15.7819 9.77066 15.8448C9.61891 15.9077 9.48104 15.9999 9.36495 16.1162L5.61486 19.8663C5.49864 19.9824 5.40644 20.1202 5.34353 20.272C5.28062 20.4237 5.24824 20.5864 5.24824 20.7507C5.24824 20.9149 5.28062 21.0776 5.34353 21.2294C5.40644 21.3811 5.49864 21.519 5.61486 21.6351L9.36495 25.3852C9.48109 25.5013 9.61897 25.5934 9.77072 25.6563C9.92246 25.7192 10.0851 25.7515 10.2493 25.7515C10.4136 25.7515 10.5762 25.7192 10.728 25.6563C10.8797 25.5934 11.0176 25.5013 11.1337 25.3852C11.2499 25.269 11.342 25.1312 11.4049 24.9794C11.4677 24.8277 11.5001 24.665 11.5001 24.5008C11.5001 24.3365 11.4677 24.1739 11.4049 24.0221C11.342 23.8704 11.2499 23.7325 11.1337 23.6164L8.26649 20.7507L11.1337 17.885C11.25 17.7689 11.3422 17.631 11.4051 17.4793C11.468 17.3275 11.5004 17.1648 11.5004 17.0006C11.5004 16.8363 11.468 16.6736 11.4051 16.5219C11.3422 16.3701 11.25 16.2323 11.1337 16.1162ZM27.7498 10.7504V30.7509C27.7498 31.414 27.4864 32.0499 27.0175 32.5188C26.5487 32.9876 25.9128 33.251 25.2497 33.251H2.74916C2.08611 33.251 1.45021 32.9876 0.981354 32.5188C0.512502 32.0499 0.249104 31.414 0.249104 30.7509V3.25019C0.249104 2.58713 0.512502 1.95123 0.981354 1.48238C1.45021 1.01352 2.08611 0.750122 2.74916 0.750122H17.7495C17.9137 0.749993 18.0764 0.782218 18.2281 0.844955C18.3799 0.907691 18.5178 0.999711 18.6339 1.11576L27.3841 9.866C27.5002 9.98217 27.5922 10.1201 27.6549 10.2718C27.7177 10.4236 27.7499 10.5862 27.7498 10.7504ZM18.9996 9.50036H23.4825L18.9996 5.01743V9.50036ZM25.2497 30.7509V12.0004H17.7495C17.418 12.0004 17.1001 11.8687 16.8656 11.6343C16.6312 11.3999 16.4995 11.0819 16.4995 10.7504V3.25019H2.74916V30.7509H25.2497Z" fill="#232732"/>
</svg>
