<svg width="25" height="24" viewBox="0 0 25 24" fill="none" xmlns="http://www.w3.org/2000/svg">
<g id="Plus">
<path id="Vector" d="M21.4998 12C21.4998 12.1989 21.4208 12.3897 21.2801 12.5303C21.1395 12.671 20.9487 12.75 20.7498 12.75H13.2498V20.25C13.2498 20.4489 13.1708 20.6397 13.0301 20.7803C12.8895 20.921 12.6987 21 12.4998 21C12.3009 21 12.1101 20.921 11.9695 20.7803C11.8288 20.6397 11.7498 20.4489 11.7498 20.25V12.75H4.24976C4.05085 12.75 3.86008 12.671 3.71943 12.5303C3.57877 12.3897 3.49976 12.1989 3.49976 12C3.49976 11.8011 3.57877 11.6103 3.71943 11.4697C3.86008 11.329 4.05085 11.25 4.24976 11.25H11.7498V3.75C11.7498 3.55109 11.8288 3.36032 11.9695 3.21967C12.1101 3.07902 12.3009 3 12.4998 3C12.6987 3 12.8895 3.07902 13.0301 3.21967C13.1708 3.36032 13.2498 3.55109 13.2498 3.75V11.25H20.7498C20.9487 11.25 21.1395 11.329 21.2801 11.4697C21.4208 11.6103 21.4998 11.8011 21.4998 12Z" fill="white"/>
</g>
</svg>
