<svg width="17" height="17" viewBox="0 0 17 17" fill="none" xmlns="http://www.w3.org/2000/svg">
<path d="M16.2929 16.0543C16.6834 15.6638 16.6834 15.0307 16.2929 14.6401L13.5371 11.8843C14.4029 10.625 14.9536 9.12965 14.9536 7.47687C14.9536 3.38428 11.5694 0 7.47682 0C3.38424 0 0 3.38428 0 7.47687C0 11.5695 3.38424 14.9537 7.47682 14.9537C9.12959 14.9537 10.625 14.4028 11.8843 13.537L14.6401 16.2929C15.0306 16.6834 15.6637 16.6834 16.0543 16.2929L16.2929 16.0543ZM2.3611 7.55556C2.3611 4.72223 4.6435 2.43982 7.47682 2.43982C10.3101 2.43982 12.5925 4.72223 12.5925 7.55556C12.5925 10.3889 10.3101 12.6713 7.47682 12.6713C4.6435 12.6713 2.3611 10.3889 2.3611 7.55556Z" fill="#555B68"/>
</svg>
